<?xml version="1.0" encoding="UTF-8" standalone="no" ?>
<!DOCTYPE svg PUBLIC "-//W3C//DTD SVG 1.1//EN" "http://www.w3.org/Graphics/SVG/1.1/DTD/svg11.dtd">
<svg xmlns="http://www.w3.org/2000/svg" xmlns:xlink="http://www.w3.org/1999/xlink" version="1.1" width="1280" height="1024" viewBox="0 0 1280 1024" xml:space="preserve">
<desc>Created with Fabric.js 3.1.0</desc>
<defs>
</defs>
<g transform="matrix(1.9692780337941629 0 0 1.9692780337941629 640.0153846153846 512.012312418764)" id="background-logo"  >
<rect style="stroke: none; stroke-width: 1; stroke-dasharray: none; stroke-linecap: butt; stroke-dashoffset: 0; stroke-linejoin: miter; stroke-miterlimit: 4; fill: rgb(255,255,255); fill-rule: nonzero; opacity: 1;"  x="-325" y="-260" rx="0" ry="0" width="650" height="520" />
</g>
<g transform="matrix(1.9692780337941638 0 0 1.9692780337941629 641.96735454146 686.2914190173362)" id="text-logo-path"  >
<path style="stroke: none; stroke-width: 1; stroke-dasharray: none; stroke-linecap: butt; stroke-dashoffset: 0; stroke-linejoin: miter; stroke-miterlimit: 4; fill: rgb(0,0,0); fill-rule: nonzero; opacity: 1;"  paint-order="stroke"  transform=" translate(-261.36999999999995, 23.79)" d="M 16.82 0 L 5.33 0 L 5.33 -47.61 L 16.82 -47.61 L 16.82 -29.12 L 37.73 -29.12 L 37.73 -47.61 L 49.29 -47.61 L 49.29 0 L 37.73 0 L 37.73 -18.49 L 16.82 -18.49 L 16.82 0 Z M 56.84 -23.79 L 56.84 -23.79 Q 56.84 -28.78 58.77 -33.33 Q 60.7 -37.87 63.98 -41.19 Q 67.27 -44.5 71.81 -46.47 Q 76.36 -48.43 81.38 -48.43 L 81.38 -48.43 Q 86.34 -48.43 90.9 -46.47 Q 95.46 -44.5 98.75 -41.19 Q 102.03 -37.87 103.99 -33.31 Q 105.96 -28.75 105.96 -23.79 L 105.96 -23.79 Q 105.96 -18.8 104.01 -14.24 Q 102.06 -9.67 98.76 -6.37 Q 95.46 -3.08 90.9 -1.11 Q 86.34 0.85 81.38 0.85 L 81.38 0.85 Q 74.68 0.85 69.03 -2.46 Q 63.37 -5.78 60.1 -11.43 Q 56.84 -17.09 56.84 -23.79 Z M 67.33 -23.79 L 67.33 -23.79 Q 67.33 -17.98 71.45 -13.89 Q 75.57 -9.81 81.38 -9.81 L 81.38 -9.81 Q 87.12 -9.81 91.23 -13.89 Q 95.33 -17.98 95.33 -23.79 L 95.33 -23.79 Q 95.33 -29.53 91.23 -33.63 Q 87.12 -37.73 81.38 -37.73 L 81.38 -37.73 Q 75.57 -37.73 71.45 -33.65 Q 67.33 -29.57 67.33 -23.79 Z M 127.9 -16.65 L 127.9 -16.65 L 139.32 -16.65 Q 139.35 -16.34 139.47 -15.83 Q 139.59 -15.31 140.26 -14.01 Q 140.92 -12.71 141.93 -11.72 Q 142.94 -10.73 144.99 -9.91 Q 147.04 -9.09 149.67 -9.09 L 149.67 -9.09 Q 153.23 -9.09 154.95 -10.34 Q 156.68 -11.59 156.68 -13.3 L 156.68 -13.3 Q 156.68 -14.18 156.18 -14.9 Q 155.69 -15.62 155.02 -16.1 Q 154.36 -16.58 153.09 -17.04 Q 151.83 -17.5 150.87 -17.76 Q 149.91 -18.01 148.27 -18.42 L 148.27 -18.42 Q 141.47 -20.03 138.26 -21.36 L 138.26 -21.36 Q 128.62 -25.36 128.62 -33.33 L 128.62 -33.33 Q 128.62 -37.6 131.2 -41.07 Q 133.78 -44.54 138.21 -46.48 Q 142.63 -48.43 148 -48.43 L 148 -48.43 Q 152.44 -48.43 156.15 -47 Q 159.86 -45.56 162.17 -43.25 Q 164.47 -40.95 165.72 -38.16 Q 166.97 -35.38 166.97 -32.54 L 166.97 -32.54 L 155.55 -32.54 Q 155.55 -34.56 153.42 -36.35 Q 151.28 -38.14 147.86 -38.14 L 147.86 -38.14 Q 145.02 -38.14 142.63 -36.97 Q 140.24 -35.79 140.24 -33.87 L 140.24 -33.87 Q 140.24 -32.27 142.31 -31.33 Q 144.38 -30.39 150.08 -28.92 L 150.08 -28.92 Q 156.58 -27.24 159.45 -25.94 L 159.45 -25.94 Q 167.24 -22.42 168.06 -15.69 L 168.06 -15.69 Q 168.16 -14.83 168.16 -13.95 L 168.16 -13.95 Q 168.16 -7.21 162.85 -3.18 Q 157.53 0.85 149.06 0.85 L 149.06 0.85 Q 144.75 0.85 141.15 -0.26 Q 137.54 -1.37 135.15 -3.16 Q 132.75 -4.96 131.08 -7.28 Q 129.4 -9.6 128.65 -11.98 Q 127.9 -14.36 127.9 -16.65 Z M 188.02 0 L 176.54 0 L 176.54 -47.61 L 188.02 -47.61 L 188.02 0 Z M 209.49 0 L 197.93 0 L 197.93 -47.61 L 209.49 -47.61 L 233.58 -18.56 L 233.58 -47.61 L 245.14 -47.61 L 245.14 0 L 233.58 0 L 209.49 -29.12 L 209.49 0 Z M 252.93 -16.65 L 252.93 -16.65 L 264.35 -16.65 Q 264.38 -16.34 264.5 -15.83 Q 264.62 -15.31 265.29 -14.01 Q 265.95 -12.71 266.96 -11.72 Q 267.97 -10.73 270.02 -9.91 Q 272.07 -9.09 274.7 -9.09 L 274.7 -9.09 Q 278.26 -9.09 279.98 -10.34 Q 281.71 -11.59 281.71 -13.3 L 281.71 -13.3 Q 281.71 -14.18 281.21 -14.9 Q 280.72 -15.62 280.05 -16.1 Q 279.38 -16.58 278.12 -17.04 Q 276.86 -17.5 275.9 -17.76 Q 274.94 -18.01 273.3 -18.42 L 273.3 -18.42 Q 266.5 -20.03 263.29 -21.36 L 263.29 -21.36 Q 253.65 -25.36 253.65 -33.33 L 253.65 -33.33 Q 253.65 -37.6 256.23 -41.07 Q 258.81 -44.54 263.23 -46.48 Q 267.66 -48.43 273.03 -48.43 L 273.03 -48.43 Q 277.47 -48.43 281.18 -47 Q 284.89 -45.56 287.19 -43.25 Q 289.5 -40.95 290.75 -38.16 Q 292 -35.38 292 -32.54 L 292 -32.54 L 280.58 -32.54 Q 280.58 -34.56 278.44 -36.35 Q 276.31 -38.14 272.89 -38.14 L 272.89 -38.14 Q 270.05 -38.14 267.66 -36.97 Q 265.27 -35.79 265.27 -33.87 L 265.27 -33.87 Q 265.27 -32.27 267.34 -31.33 Q 269.4 -30.39 275.11 -28.92 L 275.11 -28.92 Q 281.61 -27.24 284.48 -25.94 L 284.48 -25.94 Q 292.27 -22.42 293.09 -15.69 L 293.09 -15.69 Q 293.19 -14.83 293.19 -13.95 L 293.19 -13.95 Q 293.19 -7.21 287.88 -3.18 Q 282.56 0.85 274.09 0.85 L 274.09 0.85 Q 269.78 0.85 266.17 -0.26 Q 262.57 -1.37 260.18 -3.16 Q 257.78 -4.96 256.11 -7.28 Q 254.43 -9.6 253.68 -11.98 Q 252.93 -14.36 252.93 -16.65 Z M 307.79 0 L 295.62 0 L 315.99 -47.61 L 328.77 -47.61 L 349.21 0 L 336.98 0 L 333.9 -7.42 L 310.93 -7.42 L 307.79 0 Z M 322.49 -34.59 L 314.93 -16.82 L 329.9 -16.82 L 322.49 -34.59 Z M 366.37 0 L 354.2 0 L 374.58 -47.61 L 387.36 -47.61 L 407.8 0 L 395.56 0 L 392.49 -7.42 L 369.52 -7.42 L 366.37 0 Z M 381.07 -34.59 L 373.52 -16.82 L 388.49 -16.82 L 381.07 -34.59 Z M 426.43 0 L 414.87 0 L 414.87 -47.61 L 426.43 -47.61 L 450.52 -18.56 L 450.52 -47.61 L 462.08 -47.61 L 462.08 0 L 450.52 0 L 426.43 -29.12 L 426.43 0 Z M 469.73 -23.79 L 469.73 -23.79 Q 469.73 -28.71 471.68 -33.22 Q 473.63 -37.73 477.01 -41.08 Q 480.4 -44.43 485.25 -46.43 Q 490.1 -48.43 495.57 -48.43 L 495.57 -48.43 Q 502.27 -48.43 507.74 -45.65 Q 513.21 -42.86 516.9 -38.01 L 516.9 -38.01 L 506.99 -32.98 Q 503.26 -37.67 495.43 -37.67 L 495.43 -37.67 Q 489.21 -37.67 485.25 -33.77 Q 481.28 -29.87 481.28 -23.93 L 481.28 -23.93 Q 481.28 -18.15 485.35 -14.01 Q 489.42 -9.88 495.57 -9.88 L 495.57 -9.88 Q 503.02 -9.88 507.26 -13.88 L 507.26 -13.88 L 507.26 -18.49 L 492.77 -18.49 L 492.77 -27.31 L 517.41 -27.31 L 517.41 -9.67 Q 517.24 -9.3 516.39 -8.31 Q 515.53 -7.31 513.6 -5.69 Q 511.67 -4.07 509.26 -2.65 Q 506.85 -1.23 503.21 -0.19 Q 499.57 0.85 495.64 0.85 L 495.64 0.85 Q 489.9 0.85 484.98 -1.2 Q 480.05 -3.25 476.76 -6.67 Q 473.46 -10.08 471.59 -14.53 Q 469.73 -18.97 469.73 -23.79 Z" stroke-linecap="round" />
</g>
<g transform="matrix(1.9692780337941633 0 0 1.9692780337941629 639.6764341725564 820.7973670965296)" id="tagline-afc7ce83-b6b7-4aba-9718-c312c8c0a1cc-logo-path"  >
<path style="stroke: none; stroke-width: 0; stroke-dasharray: none; stroke-linecap: butt; stroke-dashoffset: 0; stroke-linejoin: miter; stroke-miterlimit: 4; fill: rgb(84,84,85); fill-rule: nonzero; opacity: 1;"  paint-order="stroke"  transform=" translate(-193.39499999999998, 15.975000000000001)" d="M 13.01 -24.81 L 1.7 -24.81 L 1.7 -31.97 L 32.15 -31.97 L 32.15 -24.81 L 20.81 -24.81 L 20.81 0 L 13.01 0 L 13.01 -24.81 Z M 61.89 0 L 37.41 0 L 37.41 -31.97 L 61.89 -31.97 L 61.89 -24.81 L 45.12 -24.81 L 45.12 -19.32 L 59.12 -19.32 L 59.12 -12.65 L 45.12 -12.65 L 45.12 -7.14 L 61.89 -7.14 L 61.89 0 Z M 65.41 -16.23 L 65.41 -16.23 Q 65.41 -19.53 66.71 -22.51 Q 68.02 -25.5 70.29 -27.7 Q 72.57 -29.9 75.8 -31.21 Q 79.04 -32.52 82.71 -32.52 L 82.71 -32.52 Q 87.71 -32.52 91.62 -30.37 Q 95.54 -28.23 97.74 -24.53 L 97.74 -24.53 L 91.2 -20.72 Q 90.03 -22.97 87.85 -24.27 Q 85.67 -25.57 82.71 -25.57 L 82.71 -25.57 Q 78.56 -25.57 75.88 -22.89 Q 73.21 -20.22 73.21 -16.23 L 73.21 -16.23 Q 73.21 -13.7 74.4 -11.52 Q 75.59 -9.34 77.79 -8.01 Q 79.98 -6.68 82.71 -6.68 L 82.71 -6.68 Q 85.55 -6.68 87.72 -7.99 Q 89.89 -9.29 91.11 -11.52 L 91.11 -11.52 L 97.65 -7.76 Q 95.4 -3.99 91.5 -1.71 Q 87.6 0.57 82.71 0.57 L 82.71 0.57 Q 79.01 0.57 75.79 -0.73 Q 72.57 -2.04 70.29 -4.28 Q 68.02 -6.52 66.71 -9.62 Q 65.41 -12.71 65.41 -16.23 Z M 110.52 0 L 102.81 0 L 102.81 -31.97 L 110.52 -31.97 L 110.52 -19.55 L 124.57 -19.55 L 124.57 -31.97 L 132.33 -31.97 L 132.33 0 L 124.57 0 L 124.57 -12.42 L 110.52 -12.42 L 110.52 0 Z M 146.74 0 L 138.98 0 L 138.98 -31.97 L 146.74 -31.97 L 162.92 -12.46 L 162.92 -31.97 L 170.67 -31.97 L 170.67 0 L 162.92 0 L 146.74 -19.55 L 146.74 0 Z M 175.31 -15.97 L 175.31 -15.97 Q 175.31 -19.32 176.61 -22.38 Q 177.9 -25.43 180.11 -27.65 Q 182.31 -29.88 185.36 -31.2 Q 188.41 -32.52 191.79 -32.52 L 191.79 -32.52 Q 195.11 -32.52 198.18 -31.2 Q 201.24 -29.88 203.44 -27.65 Q 205.65 -25.43 206.97 -22.36 Q 208.29 -19.3 208.29 -15.97 L 208.29 -15.97 Q 208.29 -12.62 206.98 -9.56 Q 205.67 -6.49 203.46 -4.28 Q 201.24 -2.07 198.18 -0.75 Q 195.11 0.57 191.79 0.57 L 191.79 0.57 Q 187.29 0.57 183.49 -1.65 Q 179.69 -3.88 177.5 -7.68 Q 175.31 -11.47 175.31 -15.97 Z M 182.35 -15.97 L 182.35 -15.97 Q 182.35 -12.07 185.12 -9.33 Q 187.89 -6.59 191.79 -6.59 L 191.79 -6.59 Q 195.64 -6.59 198.4 -9.33 Q 201.15 -12.07 201.15 -15.97 L 201.15 -15.97 Q 201.15 -19.83 198.4 -22.58 Q 195.64 -25.34 191.79 -25.34 L 191.79 -25.34 Q 187.89 -25.34 185.12 -22.59 Q 182.35 -19.85 182.35 -15.97 Z M 237.85 0 L 213.36 0 L 213.36 -31.97 L 221.07 -31.97 L 221.07 -7.14 L 237.85 -7.14 L 237.85 0 Z M 239.61 -15.97 L 239.61 -15.97 Q 239.61 -19.32 240.91 -22.38 Q 242.21 -25.43 244.41 -27.65 Q 246.61 -29.88 249.66 -31.2 Q 252.72 -32.52 256.09 -32.52 L 256.09 -32.52 Q 259.42 -32.52 262.48 -31.2 Q 265.55 -29.88 267.75 -27.65 Q 269.95 -25.43 271.27 -22.36 Q 272.59 -19.3 272.59 -15.97 L 272.59 -15.97 Q 272.59 -12.62 271.28 -9.56 Q 269.97 -6.49 267.76 -4.28 Q 265.55 -2.07 262.48 -0.75 Q 259.42 0.57 256.09 0.57 L 256.09 0.57 Q 251.59 0.57 247.79 -1.65 Q 244 -3.88 241.8 -7.68 Q 239.61 -11.47 239.61 -15.97 Z M 246.66 -15.97 L 246.66 -15.97 Q 246.66 -12.07 249.42 -9.33 Q 252.19 -6.59 256.09 -6.59 L 256.09 -6.59 Q 259.95 -6.59 262.7 -9.33 Q 265.45 -12.07 265.45 -15.97 L 265.45 -15.97 Q 265.45 -19.83 262.7 -22.58 Q 259.95 -25.34 256.09 -25.34 L 256.09 -25.34 Q 252.19 -25.34 249.42 -22.59 Q 246.66 -19.85 246.66 -15.97 Z M 276.1 -15.97 L 276.1 -15.97 Q 276.1 -19.28 277.41 -22.31 Q 278.72 -25.34 280.99 -27.58 Q 283.26 -29.83 286.52 -31.18 Q 289.78 -32.52 293.45 -32.52 L 293.45 -32.52 Q 297.95 -32.52 301.62 -30.65 Q 305.29 -28.78 307.77 -25.52 L 307.77 -25.52 L 301.12 -22.15 Q 298.62 -25.29 293.36 -25.29 L 293.36 -25.29 Q 289.18 -25.29 286.52 -22.67 Q 283.86 -20.06 283.86 -16.06 L 283.86 -16.06 Q 283.86 -12.19 286.59 -9.41 Q 289.32 -6.63 293.45 -6.63 L 293.45 -6.63 Q 298.45 -6.63 301.3 -9.32 L 301.3 -9.32 L 301.3 -12.42 L 291.57 -12.42 L 291.57 -18.34 L 308.12 -18.34 L 308.12 -6.49 Q 308 -6.24 307.43 -5.58 Q 306.85 -4.91 305.56 -3.82 Q 304.26 -2.73 302.64 -1.78 Q 301.02 -0.83 298.58 -0.13 Q 296.14 0.57 293.5 0.57 L 293.5 0.57 Q 289.64 0.57 286.34 -0.8 Q 283.03 -2.18 280.82 -4.48 Q 278.6 -6.77 277.35 -9.75 Q 276.1 -12.74 276.1 -15.97 Z M 321.66 0 L 313.95 0 L 313.95 -31.97 L 321.66 -31.97 L 321.66 0 Z M 353.28 0 L 328.79 0 L 328.79 -31.97 L 353.28 -31.97 L 353.28 -24.81 L 336.5 -24.81 L 336.5 -19.32 L 350.5 -19.32 L 350.5 -12.65 L 336.5 -12.65 L 336.5 -7.14 L 353.28 -7.14 L 353.28 0 Z M 358.05 -11.18 L 358.05 -11.18 L 365.72 -11.18 Q 365.74 -10.97 365.82 -10.63 Q 365.9 -10.28 366.35 -9.41 Q 366.8 -8.54 367.47 -7.87 Q 368.15 -7.21 369.53 -6.66 Q 370.91 -6.1 372.67 -6.1 L 372.67 -6.1 Q 375.06 -6.1 376.22 -6.94 Q 377.38 -7.78 377.38 -8.93 L 377.38 -8.93 Q 377.38 -9.52 377.04 -10.01 Q 376.71 -10.49 376.26 -10.81 Q 375.82 -11.13 374.97 -11.44 Q 374.12 -11.75 373.48 -11.92 Q 372.83 -12.09 371.73 -12.37 L 371.73 -12.37 Q 367.16 -13.45 365.01 -14.34 L 365.01 -14.34 Q 358.54 -17.03 358.54 -22.38 L 358.54 -22.38 Q 358.54 -25.24 360.27 -27.57 Q 362 -29.9 364.97 -31.21 Q 367.94 -32.52 371.55 -32.52 L 371.55 -32.52 Q 374.53 -32.52 377.02 -31.56 Q 379.51 -30.59 381.06 -29.04 Q 382.61 -27.49 383.45 -25.62 Q 384.28 -23.75 384.28 -21.85 L 384.28 -21.85 L 376.62 -21.85 Q 376.62 -23.2 375.19 -24.41 Q 373.75 -25.61 371.46 -25.61 L 371.46 -25.61 Q 369.55 -25.61 367.94 -24.82 Q 366.34 -24.03 366.34 -22.74 L 366.34 -22.74 Q 366.34 -21.66 367.73 -21.03 Q 369.12 -20.4 372.95 -19.42 L 372.95 -19.42 Q 377.31 -18.29 379.24 -17.42 L 379.24 -17.42 Q 384.47 -15.05 385.02 -10.53 L 385.02 -10.53 Q 385.09 -9.96 385.09 -9.36 L 385.09 -9.36 Q 385.09 -4.84 381.52 -2.13 Q 377.95 0.57 372.26 0.57 L 372.26 0.57 Q 369.37 0.57 366.95 -0.17 Q 364.53 -0.92 362.92 -2.12 Q 361.31 -3.33 360.19 -4.89 Q 359.06 -6.45 358.56 -8.04 Q 358.05 -9.64 358.05 -11.18 Z" stroke-linecap="round" />
</g>
<g transform="matrix(1.4497497548744815 0 0 1.4497497548744815 640.0153846153846 355.79845987032047)" style="" id="logo-logo"  >
	<g transform="matrix(0.26 0 0 -0.26 0 0)"  >
<path style="stroke: none; stroke-width: 1; stroke-dasharray: none; stroke-linecap: butt; stroke-dashoffset: 0; stroke-linejoin: miter; stroke-miterlimit: 4; fill: rgb(84,84,85); fill-rule: nonzero; opacity: 1;"  transform=" translate(-1625.0035000000003, -1529.2865000000002)" d="M 1940.53 2075.78 H 1309.47 L 993.957 1529.29 L 1309.47 982.793 h 631.06 l 315.52 546.497 Z m -81.32 -881.86 l 142.85 247.47 h -81.2 L 1798.31 1229.1 h -245.15 l -40.58 -70.31 h 285.73 l 61.01 -105.69 h -468.66 l 254.64 441.04 h 509.26 l -234.33 -405.89 Z m -641.74 300.22 l 142.88 -247.46 l 40.59 70.3 l -122.57 212.31 l 122.57 212.3 l -40.59 70.3 l -142.88 -247.45 h -122.02 l 234.32 405.87 l 254.62 -441.02 l -254.62 -441.03 l -234.32 405.88 Z m 427.83 70.3 l -254.64 441.03 h 468.66 l -61.01 -105.68 h -285.73 l 40.58 -70.31 h 245.15 l 122.55 -212.31 h 81.2 l -142.85 247.47 l 61.02 105.7 l 234.33 -405.9 H 1645.3" stroke-linecap="round" />
</g>
</g>
</svg>