<?xml version="1.0" encoding="UTF-8" standalone="no"?>
<!DOCTYPE svg PUBLIC "-//W3C//DTD SVG 1.1//EN" "http://www.w3.org/Graphics/SVG/1.1/DTD/svg11.dtd">
<svg version="1.1" xmlns="http://www.w3.org/2000/svg" xmlns:xlink="http://www.w3.org/1999/xlink" preserveAspectRatio="xMidYMid meet" viewBox="-1 -1 479.72694451848787 415.9849851860588" width="475.73" height="411.98"><defs><path d="M356.8 0L118.93 0L0 205.99L118.93 411.98L356.8 411.98L475.73 205.99L356.8 0ZM326.14 332.4L379.99 239.12L349.38 239.12L303.19 319.14L210.78 319.14L195.49 345.65L303.19 345.65L326.19 385.48L149.53 385.48L245.51 219.24L437.47 219.24L349.14 372.23L326.14 332.4ZM84.25 219.24L138.11 312.52L153.41 286.02L107.21 205.99L153.41 125.97L138.11 99.47L84.25 192.74L38.26 192.74L126.58 39.76L222.55 205.99L126.58 372.23L38.26 219.24L84.25 219.24ZM245.51 192.74L149.53 26.5L326.19 26.5L303.19 66.34L195.49 66.34L210.78 92.84L303.19 92.84L349.38 172.87L379.99 172.87L326.14 79.59L349.14 39.74L437.47 192.74L245.51 192.74" id="bP5SKoF6B"></path></defs><g><g><use xlink:href="#bP5SKoF6B" opacity="1" fill="#545455" fill-opacity="1"></use><g><use xlink:href="#bP5SKoF6B" opacity="1" fill-opacity="0" stroke="#000000" stroke-width="1" stroke-opacity="0"></use></g></g></g></svg>